<?xml version="1.0" encoding="utf-8"?>
<!-- Generator: Adobe Illustrator 24.0.1, SVG Export Plug-In . SVG Version: 6.00 Build 0)  -->
<svg version="1.1" id="Layer_1" xmlns="http://www.w3.org/2000/svg" xmlns:xlink="http://www.w3.org/1999/xlink" x="0px" y="0px"
	 viewBox="0 0 615.9 92.6" style="enable-background:new 0 0 615.9 92.6;" xml:space="preserve">
<g id="Layer_2_1_">
	<g id="Layer_2-2">
		<polygon points="391.2,90.8 398.5,90.8 398.5,89.5 392.6,89.5 392.6,83.2 398.5,83.2 398.5,81.9 392.6,81.9 392.6,77.3 
			398.5,77.3 398.5,76 391.2,76 		"/>
		<polygon points="365.4,87.7 355,75.4 355,90.8 356.3,90.8 356.3,78.8 366.7,91.2 366.7,76 365.4,76 		"/>
		<polygon points="298,90.8 299.3,90.8 299.3,83.2 305,83.2 305,81.9 299.3,81.9 299.3,77.3 305.3,77.3 305.3,76 298,76 		"/>
		<rect x="329.1" y="76" width="1.3" height="14.8"/>
		<path d="M434.5,90.8h2.5l1.7-3.8h5.8l1.7,3.8h2.5l-7.1-15.4L434.5,90.8z M442.2,81.6l1.5,3.4h-4.1l1.5-3.4
			c0.2-0.5,0.4-1.1,0.5-1.7C441.8,80.5,442,81.1,442.2,81.6z"/>
		<path d="M479.5,80.1c0.1-1.3-0.5-2.5-1.5-3.3c-1.1-0.7-2.4-1-3.7-0.8H471v14.8h2.3v-6.6h0.3l4.9,6.6h2.7l-5.1-6.7
			C478.3,83.8,479.5,82.4,479.5,80.1z M473.5,82.3v-4.2h0.4c2.1,0,3.2,0.4,3.2,2.2s-1,2-3.2,2H473.5z"/>
		<polygon points="501.9,78 505.8,78 505.8,90.8 508.2,90.8 508.2,78 512.1,78 512.1,76 501.9,76 		"/>
		<path d="M47.9,43.2c-2,3.5-3.3,5.7-5.7,8c-3.5,3.4-8,3.6-10.6,3.6c-15.4,0-25.1-10.4-25.1-27.4C6.4,11.9,14.6,2,28.6,2
			c4.8,0,8.3,0.6,11.2,2c2.7,1.3,4,3,4.9,10.3c0,0.4,1.4,0.1,1.6-0.2C46.5,10,47,5.9,47.9,1.8C43.9,1.4,38.6,0,31.8,0
			c-7.6,0-13.3,1.6-18,4.2C4.1,9.3,0,18.5,0,28.2c0,18.5,11.1,29.2,29.9,29.2c4.3,0,8.5-0.6,12.6-1.9c1.9-0.8,5.4-7,6.6-11.6
			C49.1,43.5,48.2,43.1,47.9,43.2z"/>
		<path d="M109.6,41.6c-1.3,3.2-3,6.3-5,9.1c-1.5,1.8-3,2.7-4.8,2.8c-3.6,0.3-14.2,0.3-16-0.6c-0.9-0.5-1.4-1.5-1.4-2.6
			c-0.2-4.7-0.3-15-0.2-22.7c0.1-7.2,0.1-17.6,0.2-20.5c0.1-2.2,0.2-3.4,2.3-3.9c1.1-0.3,1.9-0.4,3.7-0.6c0.4-0.1,0.3-1.2,0-1.3
			c-1.5,0-4.8,0.3-9.2,0.3c-4.8,0-7.9-0.3-9.8-0.3c-0.3,0.1-0.3,1.2-0.2,1.3c1.4,0.1,2.9,0.3,4.3,0.6c2.7,0.6,2.9,1.5,3.1,5.9
			c0.1,1.9,0.1,7.1,0.1,16.3c0,20.5-0.1,22.2-0.3,24.6c-0.2,2.9-1.1,3.5-3,4c-1.2,0.3-2.7,0.3-4.7,0.6c-0.2,0.4-0.2,0.9,0,1.3
			c1.4,0,6.7-0.3,10.2-0.3c3.8,0,20.7,0.3,25.2,0.3c1,0.1,2.1-0.3,2.8-1.1c1.2-2.4,3.3-9.5,4-13C110.8,41.7,109.8,41.4,109.6,41.6z"
			/>
		<path d="M171,48.5c-2.7-6.5-12.9-38.7-14.5-43.1c-0.5-1.7-0.9-3.1-1.1-3.9c-0.1,0-0.7,0.1-2,0.1s-1.9-0.1-2-0.1
			c-0.3,1.5-0.7,3-1.2,4.4c-1.9,5.3-9.9,28-15.3,40.7c-2.7,6.5-3.6,7.3-9.8,8c-0.3,0.2-0.3,1.2,0,1.3c1.3,0,4-0.3,8.3-0.3
			c3.9,0,8.5,0.3,10.1,0.3c0.2-0.4,0.2-0.9,0.1-1.3c-1.2-0.2-2.5-0.4-3.7-0.7c-2.9-0.7-2.8-2.1-2.6-3.7c0.4-2.6,4-12.3,5.7-16.9
			c0.1-0.3,0.4-0.5,0.7-0.6c0.9-0.1,1.3-0.1,7.2-0.1c5.5,0,7.3,0,8.2,0.1c0.2,0.1,0.4,0.3,0.6,0.4c1.7,4.9,5,14.3,6,18.1
			c0.4,1.2,0.4,1.8-1.1,2.5c-1.4,0.4-2.9,0.7-4.4,0.9c-0.2,0.2-0.1,1.2,0,1.3c1.9-0.2,7.7-0.3,9.8-0.3s4.1,0.2,6.3,0.3
			c0.3-0.4,0.4-0.9,0.2-1.3C170.6,54,173.3,53.7,171,48.5z M158.4,29.9c-0.4,0.1-3.9,0.1-5.8,0.1c-4.8,0-7,0-7.8-0.1
			c-0.3-0.1-0.4-0.3-0.4-0.6c1.3-3.9,5.7-17,7.1-20.8c0-0.1,0.3-0.1,0.4-0.1c1.3,3.9,4.5,14.1,6.6,20.9
			C158.7,29.6,158.5,29.9,158.4,29.9z"/>
		<path d="M309.3,43.4c-1.4,3.5-3.4,6.8-4.8,8c-1.1,1.1-2.2,2.3-7.6,2.3c-6.3,0-9.4-0.2-11.2-0.5c-0.9-0.2-2-0.9-2.1-3.2
			c-0.2-5.2-0.3-18.4-0.2-19.9c0-0.1,0.2-0.7,0.4-0.7c2.4-0.2,11.5-0.1,14.1,0.1c3,0.2,3.4,2,3.6,3.1c0.2,1,0.4,2,0.5,3
			c0.2,0.4,1.2,0.3,1.5-0.1c0-1.3-0.2-3.3-0.2-7.1c0-2.6,0.2-5.3,0.6-7.9c-0.5-0.2-1-0.2-1.5-0.1c-0.2,1.1-0.5,2.2-0.9,3.3
			c-0.4,1.3-1,2.7-3.8,2.9c-2.6,0.2-11.9,0.3-14.1,0.1c-0.2,0-0.3-0.4-0.3-0.7c-0.1-0.8,0-17.6,0.2-20.8c0-0.6,0.3-1.1,0.9-1.3
			c1.4-0.2,11.2-0.1,13.5,0c3.8,0.2,4.4,1.6,5,3.7c0.4,1.7,0.6,3.5,0.7,5.2c0.5,0.1,1,0.1,1.4-0.1c0.3-3.8,0.8-7.5,1.6-11.2
			c0-0.1-0.1-0.2-0.3-0.3c-1.3,0.2-5.6,0.3-8.9,0.3h-17c-4.9,0-7.4-0.3-9.4-0.3c-0.3,0.2-0.4,1.1-0.1,1.2c1.3,0.1,2.7,0.4,4,0.7
			c2.2,0.5,2.6,1.3,2.7,4.9c0.1,1.3,0.2,9.8,0.2,18.5c0,10.4-0.1,20.8-0.2,22.2c-0.3,3.6-1,4.6-3.1,5.1c-1.8,0.4-3.7,0.7-5.5,0.7
			c-0.2,0.4-0.2,0.9,0,1.3c3.3,0,5.5-0.3,11.4-0.3c13.8,0,16.5,0.3,20.9,0.3s4.8-0.1,5.3-1c1.6-3.5,2.8-7.2,3.6-11
			C310.3,43.7,309.5,43.3,309.3,43.4z"/>
		<path d="M394.6,1.3c-1,0-5.6,0.3-8,0.3c-4.1,0-7.9-0.3-10-0.3c-0.2,0.2-0.4,1.1-0.1,1.3c1.8,0.1,3.6,0.4,5.4,0.9
			c2.5,0.8,2.8,2.4,3,4.8c0.5,6.2,0.4,27.4,0.4,39.3l-0.3,0.2c-3.2-3.6-24.1-29-34.3-41.5c-1.3-1.5-2.4-3.1-3.4-4.8
			c-0.8,0.1-1.9,0.1-3.7,0.1c-2.7,0-6.8-0.3-8-0.3c-0.2,0.4-0.2,0.9-0.2,1.3c3.6,0.4,5.6,0.6,7.5,2.7c0.9,1,1.5,2.3,1.6,3.7
			c-0.2,18.5-0.5,34.8-0.7,38.9c-0.2,4.6-1.6,5.6-3.6,6.1c-1.2,0.3-2.4,0.5-3.6,0.6c-0.2,0.1-0.2,1.2,0,1.3c1.8,0,4.6-0.3,8.5-0.3
			c4.5,0,8.3,0.3,10,0.3c0.2-0.1,0.4-1.2,0.1-1.3c-1.6-0.1-3.1-0.4-4.7-0.8c-1.9-0.5-3.2-1.5-3.4-5.9c-0.2-5.1-0.2-28.5-0.1-37.3
			c0-0.1,0.3-0.2,0.4-0.1c4,4.9,31.9,39,36.3,45.6c1.5-0.1,2.9-0.1,4.4,0c-0.1-2.7-0.2-7.7-0.2-11.7c0.2-11.8,0.1-30.1,0.5-36.7
			c0.1-2,0.6-3.9,2.8-4.5c1.1-0.3,2.3-0.6,3.4-0.7C394.8,2.2,394.8,1.7,394.6,1.3z"/>
		<path d="M459.4,7.4c-4.7-4.2-11.3-6.2-19-6.2c-6.9,0-10.7,0.4-16.5,0.4c-2.3,0-7.3-0.2-9.5-0.3c-0.2,0.4-0.3,0.9-0.2,1.3
			c1.4,0.1,2.8,0.4,4.2,0.7c2.3,0.5,2.6,1.6,2.7,5.2c0.2,3.1,0.2,14.6,0.2,19c0,7.3,0,15.9-0.3,21.8c-0.3,3.7-1.4,4.1-2.9,4.5
			c-1.5,0.3-3.1,0.6-4.7,0.8c-0.3,0-0.3,1.2,0,1.3c2-0.1,6.5,0,7.5,0c7.5,0.1,10,0.3,15,0.3c6.6,0.1,13-1.6,18.6-5
			c5.8-3.5,12.8-10.8,12.8-24C467.4,19.3,465,12.4,459.4,7.4z M453.9,48.9c-4.1,3.9-9.3,4.9-14,4.9c-5.4,0-9.3-0.6-10.9-1.6
			c-1.2-0.7-2-2-2-3.4c-0.1-2.9-0.1-12.9-0.1-20.9c0-7.7,0-20.1,0.2-22.3c0.1-1.4,0.7-1.8,1.1-1.9c1.6-0.3,3.3-0.5,5-0.4
			c7.7,0,13.8,1.2,17.9,4.1c7.2,5.1,10,12.5,10,21.5C461.1,39.1,458.3,44.9,453.9,48.9z"/>
		<path d="M515.2,0c-8.5,0-18.4,4.6-23.3,11.8c-3.2,4.9-4.9,10.5-4.9,16.3c-0.1,7.7,2.5,15.1,7.5,20.9c4.9,5.3,11.8,8.3,19,8.3
			c8.6,0,17.5-4.1,22.6-11.8c3.4-5,5.2-10.5,5.2-17.9C541.4,13.3,532.6,0,515.2,0z M527.5,51.2c-3,2.3-6.7,3.5-10.5,3.4
			c-4.2,0.1-8.4-1.1-12-3.4c-8.2-5.4-11.6-15.9-11.6-24.8c0-9.2,3-17.7,10-21.6c2.7-1.4,5.7-2.2,8.8-2.1c4.5-0.1,9,1.3,12.6,4
			c7.5,5.2,10.8,14.7,10.8,23.9C535.6,39,533.4,46.3,527.5,51.2z"/>
		<path d="M615.8,1.3c-1,0-5.6,0.3-8,0.3c-4.1,0-7.8-0.3-10-0.3c-0.2,0.2-0.3,1.1-0.1,1.3c1.8,0.1,3.6,0.4,5.4,0.9
			c2.5,0.8,2.8,2.4,3,4.8c0.5,6.2,0.4,27.4,0.4,39.3l-0.3,0.2c-3.7-4.2-23.9-28.7-34.3-41.5c-1.3-1.5-2.4-3.1-3.4-4.8
			c-0.8,0.1-1.9,0.1-3.7,0.1c-2.7,0-6.8-0.3-8-0.3c-0.2,0.4-0.3,0.9-0.2,1.3c3.6,0.4,5.7,0.6,7.5,2.7c0.9,1,1.5,2.3,1.6,3.7
			c-0.2,18.5-0.5,34.8-0.7,38.9c-0.2,4.6-1.6,5.6-3.6,6.1c-1.2,0.3-2.4,0.5-3.6,0.6c-0.2,0.4-0.2,0.9,0,1.3c1.8,0,4.6-0.3,8.6-0.3
			c4.5,0,8.3,0.3,10,0.3c0.2-0.1,0.4-1.2,0.1-1.3c-1.6-0.1-3.1-0.4-4.7-0.8c-1.8-0.5-3.2-1.5-3.4-5.9c-0.2-5.1-0.2-28.5-0.1-37.3
			c0-0.1,0.3-0.2,0.3-0.1c4,4.9,31.9,39,36.3,45.6c1.5-0.1,2.9-0.1,4.4,0c-0.1-2.7-0.2-7.7-0.2-11.7c0.2-11.8,0.1-30.1,0.5-36.7
			c0.1-2,0.6-3.9,2.8-4.5c1.1-0.3,2.3-0.6,3.4-0.7C616.1,2.2,616,1.7,615.8,1.3z"/>
		<path d="M265,80.9c-3.2-3.2-10.6-12.5-15.2-18.5l0,0l0,0c-1.8-2.4-3.2-4.3-3.6-5.1l-20-27.6l0,0c-0.1-0.1-0.1-0.3,0.1-0.4
			c4.9-2.2,10.1-6.3,10.1-14c0-7.1-4.8-13.2-14.6-13.2c-3.1,0-7.1,0.2-12.8,0.2c-2.3,0-6.4-0.3-8.4-0.3c-0.2,0.4-0.2,0.9-0.1,1.3
			c1.4,0.1,2.8,0.2,4.2,0.5c2.2,0.4,2.7,1.7,2.8,3.8c0.2,3.2,0.2,16.9,0.2,21.9c0,6.3,0,14.6-0.2,19.5c-0.1,3.2-0.6,4.5-2.7,5
			c-1.4,0.3-2.8,0.5-4.3,0.7c-0.3,0.1-0.3,1.2,0,1.3c1.3,0,4.4-0.3,9.8-0.3c3.7,0,8.5,0.3,9.7,0.3c0.3-0.3,0.4-1.1,0.1-1.3
			c-1.6-0.3-3.2-0.5-4.5-0.9c-1.6-0.4-2.3-1-2.4-4.8c-0.2-3.2-0.2-12.3-0.2-16.9c0-0.2,0.2-0.6,0.4-0.6c1.5,0,5.1-0.2,6.6-0.1
			c0.5,0,0.9,0.2,1.2,0.5L240,58.6h-0.1c0.1,0,0.2,0.1,0.3,0.3c1.3,1.4,5.9,7.9,10.3,13.9c3.1,4.3,6.1,8.2,7.6,9.9
			c1.3,1.7,3,3,4.9,3.8c3.1,1.3,10.4,1.7,14.1,1.4c0.2-0.1,0.3-1.4,0.2-1.6C272.5,85.9,270.1,85.9,265,80.9z M213.2,28.8
			c-0.2-0.1-0.3-0.2-0.4-0.4c0-5.8,0-20,0.3-23c0-0.4,0.2-0.8,0.4-1.1c0.9-0.2,1.9-0.3,2.9-0.3c9.7,0,14.4,4.7,14.4,13
			c0,7.5-4,10.6-7,11.6C221.7,29.4,216.1,29.1,213.2,28.8z"/>
	</g>
</g>
</svg>
